<svg xmlns="http://www.w3.org/2000/svg" fill="none" viewBox="0 0 128 128">
  <!-- Фоновая сетка паттернов -->
  <defs>
    <pattern id="grid" x="0" y="0" width="16" height="16" patternUnits="userSpaceOnUse">
      <path d="M 16 0 L 0 0 0 16" fill="none" stroke="currentColor" stroke-width="1" opacity="0.1"/>
    </pattern>
  </defs>
  
  <!-- Фон -->
  <rect width="128" height="128" rx="24" fill="url(#grid)"/>
  
  <!-- Градиентный фон -->
  <rect width="128" height="128" rx="24" fill="url(#gradient)" opacity="0.9"/>
  
  <!-- Градиент -->
  <defs>
    <linearGradient id="gradient" x1="0%" y1="0%" x2="100%" y2="100%">
      <stop offset="0%" style="stop-color:#667eea;stop-opacity:1" />
      <stop offset="50%" style="stop-color:#764ba2;stop-opacity:1" />
      <stop offset="100%" style="stop-color:#f093fb;stop-opacity:1" />
    </linearGradient>
  </defs>
  
  <!-- Основные элементы паттерна -->
  <!-- Квадрат (представляет компонент) -->
  <rect x="32" y="32" width="24" height="24" rx="4" fill="white" opacity="0.9"/>
  
  <!-- Круг (представляет другой тип компонента) -->
  <circle cx="88" cy="40" r="12" fill="white" opacity="0.9"/>
  
  <!-- Треугольник (представляет третий тип компонента) -->
  <path d="M 40 88 L 56 72 L 72 88 Z" fill="white" opacity="0.9"/>
  
  <!-- Соединительные линии (представляют связи между паттернами) -->
  <path d="M 56 56 L 76 40" stroke="white" stroke-width="2" opacity="0.7"/>
  <path d="M 56 56 L 56 72" stroke="white" stroke-width="2" opacity="0.7"/>
  <path d="M 88 52 L 88 76" stroke="white" stroke-width="2" opacity="0.7"/>
  
  <!-- Точки соединения -->
  <circle cx="56" cy="56" r="3" fill="white"/>
  <circle cx="88" cy="52" r="3" fill="white"/>
  <circle cx="88" cy="76" r="3" fill="white"/>
  <circle cx="56" cy="72" r="3" fill="white"/>
  
  <!-- Дополнительные декоративные элементы -->
  <circle cx="24" cy="24" r="2" fill="white" opacity="0.6"/>
  <circle cx="104" cy="24" r="2" fill="white" opacity="0.6"/>
  <circle cx="24" cy="104" r="2" fill="white" opacity="0.6"/>
  <circle cx="104" cy="104" r="2" fill="white" opacity="0.6"/>
  
  <!-- Стили для темной темы -->
  <style>
    @media (prefers-color-scheme: dark) {
      rect[fill="white"], circle[fill="white"], path[fill="white"] {
        fill: #1a1a1a;
      }
      path[stroke="white"] {
        stroke: #1a1a1a;
      }
      circle[fill="white"][opacity="0.6"] {
        fill: #1a1a1a;
      }
    }
  </style>
</svg>
